<?xml version="1.0" encoding="UTF-8"?>
<svg width="60px" height="35px" viewBox="0 0 60 35" version="1.1" xmlns="http://www.w3.org/2000/svg" xmlns:xlink="http://www.w3.org/1999/xlink">
    <!-- Generator: Sketch 43.1 (39012) - http://www.bohemiancoding.com/sketch -->
    <title>noun_Chicken_1513119</title>
    <desc>Created with Sketch.</desc>
    <defs></defs>
    <g id="Page-1" stroke="none" stroke-width="1" fill="none" fill-rule="evenodd">
        <g id="noun_Chicken_1513119" fill="#FFFFFF">
            <path d="M18.170347,18.8471708 C12.3028391,24.7488102 16.6561514,34.8387097 24.7949527,34.8387097 L42.9652997,34.8387097 C65.2996845,34.8387097 65.8675079,3.55271368e-15 42.9652997,3.55271368e-15 C34.2586751,3.55271368e-15 26.8769716,6.6631412 25.7413249,15.230037 C25.7413249,15.8011634 25.362776,16.1819143 24.7949527,16.1819143 C22.1451104,16.1819143 19.873817,17.1337916 18.170347,18.8471708 Z M8.32807571,18.2760444 L15.1419558,22.0835537 C15.7097792,20.3701745 16.8454259,19.0375463 17.9810726,17.704918 L10.977918,13.5166579 C10.4100946,13.3262824 10.2208202,12.755156 10.5993691,12.1840296 C11.9242902,9.89952406 11.3564669,7.04389212 8.32807571,6.47276573 C4.3533123,5.90163934 4.16403785,9.89952406 5.48895899,12.5647805 C5.67823344,13.1359069 5.48895899,13.7070333 5.11041009,13.8974088 C3.97476341,14.4685352 -0.94637224,14.0877842 0.378548896,18.4664199 C0.567823344,19.2279217 1.13564669,19.9894236 1.89274448,20.56055 C4.16403785,21.7028027 5.86750789,20.56055 7.00315457,18.6567953 C7.19242902,18.085669 7.76025237,17.8952935 8.32807571,18.2760444 Z M42.2082019,5.52088842 C41.0725552,5.52088842 40.8832808,3.80750925 42.0189274,3.61713379 C50.7255521,3.23638287 57.7287066,10.6610259 56.5930599,19.2279217 C56.4037855,20.3701745 54.7003155,20.179799 54.8895899,19.0375463 C55.8359621,11.6129032 49.7791798,4.94976203 42.2082019,5.52088842 Z" id="Shape"></path>
        </g>
    </g>
</svg>