<?xml version="1.0" encoding="UTF-8"?>
<svg width="90px" height="70px" viewBox="0 0 90 70" version="1.1" xmlns="http://www.w3.org/2000/svg" xmlns:xlink="http://www.w3.org/1999/xlink">
    <!-- Generator: Sketch 43.1 (39012) - http://www.bohemiancoding.com/sketch -->
    <title>noun_Vegetarian_28945</title>
    <desc>Created with Sketch.</desc>
    <defs></defs>
    <g id="Page-1" stroke="none" stroke-width="1" fill="none" fill-rule="evenodd">
        <g id="noun_Vegetarian_28945" fill-rule="nonzero" fill="#FFFFFF">
            <path d="M43.45,69.499 C43.45,69.499 41.678,20.082 0.024,0.754 C0.024,0.754 51.809,5.627 43.45,69.499 Z M57.525,40.003 C67.56,32.062 76.013,24.674 84.308,9.32 L84.308,9.32 C84.671,8.575 84.966,7.97 85.163,7.57 C85.913,6.112 87.534,2.596 89.975,0.754 C89.954,0.753 65.102,2.176 53.58,18.746 C49.309,24.886 46.268,35.125 46.268,54.275 C46.323,54.015 46.379,53.747 46.434,53.464 C46.682,52.359 47.094,51.144 47.473,49.806 C47.67,49.142 47.874,48.443 48.086,47.722 C48.33,47.017 48.624,46.292 48.904,45.551 C49.489,44.068 50.019,42.472 50.812,40.922 C51.562,39.353 52.265,37.702 53.199,36.135 C53.642,35.341 54.088,34.543 54.541,33.74 C54.986,32.94 55.521,32.183 56.012,31.401 C56.518,30.63 56.992,29.837 57.522,29.088 C58.065,28.346 58.6,27.61 59.135,26.875 C60.164,25.381 61.364,24.051 62.428,22.695 C63.571,21.401 64.66,20.139 65.758,19.005 C66.862,17.873 67.903,16.801 68.916,15.875 C70.91,13.976 72.687,12.522 73.945,11.53 C75.209,10.539 75.97,10.031 75.97,10.031 C75.97,10.031 75.226,10.571 74.009,11.61 C72.793,12.652 71.078,14.171 69.172,16.142 C68.194,17.106 67.207,18.212 66.16,19.381 C65.117,20.55 64.088,21.846 63.011,23.174 C62.009,24.561 60.879,25.922 59.92,27.439 C59.422,28.185 58.922,28.935 58.42,29.688 C57.931,30.449 57.492,31.25 57.028,32.028 C56.58,32.82 56.086,33.579 55.674,34.383 C55.268,35.191 54.862,35.993 54.463,36.79 C53.609,38.356 52.984,40.01 52.315,41.567 C51.608,43.108 51.151,44.688 50.643,46.159 C50.397,46.895 50.139,47.604 49.932,48.305 C49.825,48.737 49.721,49.139 49.62,49.549 C51.346,46.665 53.802,43.368 57.525,40.003 Z" id="Shape"></path>
        </g>
    </g>
</svg>